<svg xmlns="http://www.w3.org/2000/svg" viewBox="0 0 512 512">
  <defs>
    <linearGradient id="bg" x1="0%" y1="0%" x2="100%" y2="100%">
      <stop offset="0%" style="stop-color:#818cf8"/>
      <stop offset="100%" style="stop-color:#4338ca"/>
    </linearGradient>
    <linearGradient id="card" x1="0%" y1="0%" x2="0%" y2="100%">
      <stop offset="0%" style="stop-color:#ffffff;stop-opacity:0.22"/>
      <stop offset="100%" style="stop-color:#ffffff;stop-opacity:0.08"/>
    </linearGradient>
  </defs>

  <!-- Background -->
  <rect width="512" height="512" rx="108" fill="url(#bg)"/>

  <!-- Card body -->
  <rect x="108" y="130" width="296" height="340" rx="28" fill="url(#card)" stroke="white" stroke-width="4" stroke-opacity="0.25"/>

  <!-- Clip at top -->
  <rect x="208" y="112" width="96" height="36" rx="18" fill="white" opacity="0.9"/>
  <rect x="234" y="120" width="44" height="20" rx="10" fill="#6366f1"/>

  <!-- Row 1 — completed -->
  <circle cx="162" cy="234" r="18" fill="none" stroke="white" stroke-width="7" opacity="0.95"/>
  <polyline points="151,234 160,243 175,222" fill="none" stroke="white" stroke-width="7" stroke-linecap="round" stroke-linejoin="round" opacity="0.95"/>
  <rect x="198" y="224" width="148" height="14" rx="7" fill="white" opacity="0.85"/>
  <rect x="198" y="244" width="96" height="8" rx="4" fill="white" opacity="0.35"/>

  <!-- Row 2 — completed -->
  <circle cx="162" cy="308" r="18" fill="none" stroke="white" stroke-width="7" opacity="0.95"/>
  <polyline points="151,308 160,317 175,296" fill="none" stroke="white" stroke-width="7" stroke-linecap="round" stroke-linejoin="round" opacity="0.95"/>
  <rect x="198" y="298" width="118" height="14" rx="7" fill="white" opacity="0.85"/>
  <rect x="198" y="318" width="72" height="8" rx="4" fill="white" opacity="0.35"/>

  <!-- Row 3 — pending -->
  <circle cx="162" cy="382" r="18" fill="none" stroke="white" stroke-width="7" opacity="0.4"/>
  <rect x="198" y="374" width="134" height="14" rx="7" fill="white" opacity="0.35"/>
  <rect x="198" y="394" width="80" height="8" rx="4" fill="white" opacity="0.18"/>
</svg>
